<?xml version="1.0" encoding="utf-8"?>
<!-- Generator: Adobe Illustrator 16.0.0, SVG Export Plug-In . SVG Version: 6.00 Build 0)  -->
<!DOCTYPE svg PUBLIC "-//W3C//DTD SVG 1.1//EN" "http://www.w3.org/Graphics/SVG/1.1/DTD/svg11.dtd">
<svg version="1.1" id="Layer_1" xmlns="http://www.w3.org/2000/svg" xmlns:xlink="http://www.w3.org/1999/xlink" x="0px" y="0px"
	 width="700px" height="700px" viewBox="900 900 700 700" enable-background="new 900 900 700 700" xml:space="preserve">
<g>
	<g>
		<path fill="#003562" d="M901,900h700v700H901V900z"/>
		<path fill="#FFFFFF" d="M1204.803,967.987l0.1,187.983c0,13.237,16.129,73.992,99.871,73.992
			c83.768,0,97.109-60.631,97.109-73.529v-107.472l-64.227-67.412v167.94c0,3.409,0.262,20.432-33.096,20.432
			c-34.582,0-34.605-16.785-34.605-20.87V968.138L1204.803,967.987L1204.803,967.987z"/>
		<path fill="#FFFFFF" d="M1344.182,968.025l61.176,63.539h44.271v194.463h66.841v-194.463h51.648v-63.539H1344.182z
			 M1170.971,1170.661l54.711,55.768h-73.716l-120.3-125.586h71.016l18.991,19.492c2.713-6.356,4.526-13.613,4.526-24.493
			c0-38.544-32.569-68.001-69.64-68.001c-37.083,0-66.927,31.713-66.927,68.916c0,37.179,30.306,67.989,68.265,67.989
			c4.076,0,7.789,0,12.214-1.354c0.625-0.2,49.661,52.796,49.299,53.034c-13.991,9.991-40.709,14.967-61.513,14.967
			c-73.241,0-130.215-62.562-130.215-133.732c0-71.172,57.875-131.026,132.028-131.026c74.166,0,132.503,60.292,132.503,133.732
			C1192.675,1129.86,1178.197,1160.232,1170.971,1170.661L1170.971,1170.661z"/>
	</g>
	<g>
		<path fill="#FFFFFF" d="M960.787,1330.942h16.491l34.098,88.531h-16.615l-8.308-23.435h-35.338l-8.308,23.435h-15.995
			L960.787,1330.942z M955.332,1384.26h27.03l-13.267-38.066h-0.372L955.332,1384.26z"/>
		<path fill="#FFFFFF" d="M1019.812,1330.942h39.058c25.294,0,30.13,16.367,30.13,27.402c0,10.912-4.835,27.279-30.13,27.155
			h-23.559v33.974h-15.499V1330.942z M1035.311,1372.853h22.691c6.943,0,15.499-3.472,15.499-14.632
			c0-11.655-7.067-14.631-15.251-14.631h-22.939V1372.853z"/>
		<path fill="#FFFFFF" d="M937.104,1479.742h36.702c27.278,0,39.058,19.839,39.058,44.266c0,24.426-11.779,44.266-39.058,44.266
			h-36.702V1479.742z M952.604,1555.625h15.251c24.303,0,29.51-13.886,29.51-31.617c0-17.73-5.208-31.618-29.51-31.618h-15.251
			V1555.625z"/>
		<path fill="#FFFFFF" d="M1026.631,1479.742h63.732v13.392h-48.233v23.187h44.638v12.647h-44.638v25.913h49.102v13.393h-64.601
			V1479.742z"/>
		<path fill="#FFFFFF" d="M1114.917,1538.763c0,13.64,10.043,18.972,22.443,18.972c13.639,0,18.723-6.697,18.723-13.392
			c0-6.819-3.72-9.548-7.315-10.911c-6.2-2.356-14.259-3.968-26.411-7.315c-15.127-4.092-19.591-13.268-19.591-22.443
			c0-17.73,16.367-26.038,32.362-26.038c18.475,0,33.974,9.795,33.974,28.271h-15.499c-0.744-11.407-8.432-15.623-19.095-15.623
			c-7.191,0-16.243,2.604-16.243,11.531c0,6.199,4.216,9.671,10.54,11.407c1.364,0.372,20.955,5.456,25.542,6.819
			c11.655,3.472,17.235,13.392,17.235,22.566c0,19.839-17.607,27.774-35.214,27.774c-20.211,0-36.578-9.672-36.95-31.618H1114.917z"
			/>
		<path fill="#FFFFFF" d="M1185.101,1479.742h15.499v40.298l39.43-40.298h19.095l-35.338,35.338l37.818,53.193h-19.343
			l-29.014-42.281l-12.647,12.522v29.759h-15.499V1479.742z"/>
		<path fill="#FFFFFF" d="M1261.609,1479.742h71.668v13.392h-28.146v75.14h-15.5v-75.14h-28.021V1479.742z"/>
		<path fill="#FFFFFF" d="M1423.67,1524.008c0,25.295-15.871,46.373-42.405,46.373s-42.405-21.078-42.405-46.373
			c0-25.294,15.871-46.373,42.405-46.373S1423.67,1498.714,1423.67,1524.008z M1354.358,1524.008
			c0,16.987,7.936,33.727,26.906,33.727c18.972,0,26.907-16.739,26.907-33.727s-7.936-33.726-26.907-33.726
			C1362.294,1490.282,1354.358,1507.021,1354.358,1524.008z"/>
		<path fill="#FFFFFF" d="M1437.811,1479.742h39.058c25.295,0,30.13,16.367,30.13,27.402c0,10.912-4.835,27.279-30.13,27.155h-23.56
			v33.974h-15.498V1479.742z M1453.309,1521.652H1476c6.944,0,15.499-3.472,15.499-14.632c0-11.655-7.067-14.631-15.251-14.631
			h-22.939V1521.652z"/>
	</g>
</g>
</svg>
